<svg id="Layer_1" data-name="Layer 1" xmlns="http://www.w3.org/2000/svg" viewBox="0 0 32 32"><defs><style>.cls-1{fill:#003368;}</style></defs><title>download-brochure</title><path class="cls-1" d="M13.56.39h4.88A1.46,1.46,0,0,1,19.9,1.85V12.1h5.35a1.22,1.22,0,0,1,.86,2.08l-9.27,9.28a1.18,1.18,0,0,1-1.67,0L5.88,14.18a1.22,1.22,0,0,1,.86-2.08H12.1V1.85A1.46,1.46,0,0,1,13.56.39Zm18,22.93v6.83a1.46,1.46,0,0,1-1.46,1.46H1.85A1.46,1.46,0,0,1,.39,30.15V23.32a1.46,1.46,0,0,1,1.46-1.47h9l3,3a3.11,3.11,0,0,0,4.42,0l3-3h9A1.46,1.46,0,0,1,31.61,23.32Zm-7.56,5.36a1.22,1.22,0,1,0-1.22,1.22A1.22,1.22,0,0,0,24.05,28.68Zm3.9,0a1.22,1.22,0,1,0-1.22,1.22A1.22,1.22,0,0,0,28,28.68Z"/></svg>