<svg id="Layer_1" data-name="Layer 1" xmlns="http://www.w3.org/2000/svg" xmlns:xlink="http://www.w3.org/1999/xlink" viewBox="0 0 32 32">
<defs>
  <style>.cls-1{fill:url(#linear-gradient);}.cls-2{fill:url(#linear-gradient-2);}.cls-3{fill:url(#linear-gradient-3);}.cls-4{fill:url(#linear-gradient-4);}.cls-5{fill:url(#linear-gradient-5);}
  </style>
  <linearGradient id="linear-gradient" x1="12.85" y1="16" x2="19.16" y2="16" gradientUnits="userSpaceOnUse">
    <stop offset="0" stop-color="#ff4a4a"/>
    <stop offset="1" stop-color="#ff4a4a"/>
    </linearGradient>
    <linearGradient id="linear-gradient-2" x1="21.05" y1="16" x2="26.33" y2="16" xlink:href="#linear-gradient"/>
    <linearGradient id="linear-gradient-3" x1="24.44" y1="16" x2="31.56" y2="16" xlink:href="#linear-gradient"/>
    <linearGradient id="linear-gradient-4" x1="5.67" y1="16" x2="10.95" y2="16" xlink:href="#linear-gradient"/>
    <linearGradient id="linear-gradient-5" x1="0.44" y1="16" x2="7.56" y2="16" xlink:href="#linear-gradient"/>
</defs>
<title>live-classes</title><path class="cls-1" d="M18.24,18.23a3.16,3.16,0,1,1,0-4.46,3.17,3.17,0,0,1,0,4.46Zm0,0"/><path class="cls-2" d="M22.55,23a1.5,1.5,0,0,1-1.06-2.56,6.28,6.28,0,0,0,0-8.88,1.5,1.5,0,1,1,2.12-2.12,9.27,9.27,0,0,1,0,13.12,1.53,1.53,0,0,1-1.06.44Zm0,0"/><path class="cls-3" d="M25.94,27.42A1.51,1.51,0,0,1,24.88,27a1.49,1.49,0,0,1,0-2.12,12.49,12.49,0,0,0,0-17.71A1.5,1.5,0,1,1,27,5a15.5,15.5,0,0,1,0,22,1.51,1.51,0,0,1-1.06.44Zm0,0"/><path class="cls-4" d="M9.45,23a1.53,1.53,0,0,1-1.06-.44,9.27,9.27,0,0,1,0-13.12,1.5,1.5,0,0,1,2.12,2.12,6.28,6.28,0,0,0,0,8.88A1.5,1.5,0,0,1,9.45,23Zm0,0"/><path class="cls-5" d="M6.06,27.42A1.51,1.51,0,0,1,5,27,15.5,15.5,0,0,1,5,5,1.51,1.51,0,0,1,7.12,5a1.49,1.49,0,0,1,0,2.12,12.51,12.51,0,0,0,0,17.72,1.49,1.49,0,0,1,0,2.12,1.51,1.51,0,0,1-1.06.44Zm0,0"/></svg>